<svg xmlns="http://www.w3.org/2000/svg" style="display:none">
<!-- GENERATED from src/Icon.tsx by scripts/build-icon-sprite.mjs — do not edit by hand.
     Stroke/caps are set on the <use> site in the page CSS so a single rule restyles them all. -->
<symbol id="i-chat" viewBox="0 0 24 24"><path d="M20 12a8 8 0 0 1-11.6 7.1L4 20l1-4.2A8 8 0 1 1 20 12Z"/></symbol>
<symbol id="i-voice" viewBox="0 0 24 24"><rect x="9" y="3" width="6" height="11" rx="3"/><path d="M5 11a7 7 0 0 0 14 0M12 18v3"/></symbol>
<symbol id="i-studio" viewBox="0 0 24 24"><rect x="3" y="4" width="18" height="16" rx="2.5"/><path d="m3 15 5-4 4 3 3-2 6 5"/><circle cx="9" cy="9" r="1.3"/></symbol>
<symbol id="i-briefcase" viewBox="0 0 24 24"><rect x="3" y="7" width="18" height="13" rx="2"/><path d="M8 7V5.5A1.5 1.5 0 0 1 9.5 4h5A1.5 1.5 0 0 1 16 5.5V7"/></symbol>
<symbol id="i-home" viewBox="0 0 24 24"><path d="M4 10.5 12 4l8 6.5V19a1.5 1.5 0 0 1-1.5 1.5h-13A1.5 1.5 0 0 1 4 19Z"/></symbol>
<symbol id="i-key" viewBox="0 0 24 24"><circle cx="8" cy="12" r="4"/><path d="M12 12h9M18 12v3M15 12v2"/></symbol>
<symbol id="i-chart" viewBox="0 0 24 24"><path d="M4 20V10M10 20V4M16 20v-7M22 20H2"/></symbol>
<symbol id="i-settings" viewBox="0 0 24 24"><circle cx="12" cy="12" r="3"/><path d="M12 2v3M12 19v3M4.2 4.2l2.1 2.1M17.7 17.7l2.1 2.1M2 12h3M19 12h3M4.2 19.8l2.1-2.1M17.7 6.3l2.1-2.1"/></symbol>
<symbol id="i-team" viewBox="0 0 24 24"><circle cx="9" cy="8" r="3"/><path d="M3 20a6 6 0 0 1 12 0M17 11a3 3 0 1 0-2-5.2M21 20a5 5 0 0 0-4-4.9"/></symbol>
<symbol id="i-ninja" viewBox="0 0 24 24"><path d="M3 12a9 9 0 0 1 18 0"/><rect x="3" y="11" width="18" height="5" rx="2.5"/><path d="M8 13.5h3M14 13.5h2"/></symbol>
<symbol id="i-eye" viewBox="0 0 24 24"><path d="M2 12s3.6-6 10-6 10 6 10 6-3.6 6-10 6-10-6-10-6Z"/><circle cx="12" cy="12" r="2.5"/></symbol>
<symbol id="i-people" viewBox="0 0 24 24"><circle cx="12" cy="8" r="3.2"/><path d="M5 20a7 7 0 0 1 14 0"/></symbol>
<symbol id="i-markets" viewBox="0 0 24 24"><path d="M3 17l5-5 3.5 3.5L21 6"/><path d="M15 6h6v6"/></symbol>
<symbol id="i-trophy" viewBox="0 0 24 24"><path d="M7 4h10v5a5 5 0 0 1-10 0Z"/><path d="M7 6H4.5A2.5 2.5 0 0 0 7 10M17 6h2.5A2.5 2.5 0 0 1 17 10M9.5 20h5M12 14v6"/></symbol>
<symbol id="i-search" viewBox="0 0 24 24"><circle cx="11" cy="11" r="6"/><path d="m20 20-3.5-3.5"/></symbol>
<symbol id="i-plus" viewBox="0 0 24 24"><path d="M12 5v14M5 12h14"/></symbol>
<symbol id="i-pin" viewBox="0 0 24 24"><path d="M12 17v4M9 4h6l-1 6 3 3H7l3-3-1-6Z"/></symbol>
<symbol id="i-pencil" viewBox="0 0 24 24"><path d="M4 20h4l10-10a2.5 2.5 0 0 0-3.5-3.5L4 16.5Z"/></symbol>
<symbol id="i-close" viewBox="0 0 24 24"><path d="M6 6l12 12M18 6 6 18"/></symbol>
<symbol id="i-check" viewBox="0 0 24 24"><path d="m5 13 4.5 4.5L19 7"/></symbol>
<symbol id="i-refresh" viewBox="0 0 24 24"><path d="M20 12a8 8 0 1 1-2.6-5.9"/><path d="M20 4v4.5h-4.5"/></symbol>
<symbol id="i-phone" viewBox="0 0 24 24"><rect x="6.5" y="2.5" width="11" height="19" rx="2.5"/><path d="M10.5 18.5h3"/></symbol>
<symbol id="i-brain" viewBox="0 0 24 24"><path d="M12 5.5a4 4 0 0 0-7 2.2A3.3 3.3 0 0 0 5.6 14c.2 2.6 2.4 4.5 6.4 4.5Z"/><path d="M12 5.5a4 4 0 0 1 7 2.2 3.3 3.3 0 0 1 .4 6.3c-.2 2.6-2.4 4.5-6.4 4.5Z"/></symbol>
<symbol id="i-shield" viewBox="0 0 24 24"><path d="M12 3.5 5 6.5V12c0 4.4 3 7.6 7 8.5 4-.9 7-4.1 7-8.5V6.5Z"/></symbol>
<symbol id="i-book" viewBox="0 0 24 24"><path d="M4.5 5.5A2 2 0 0 1 6.5 3.5H19v14.5H6.5a2 2 0 0 0-2 2Z"/><path d="M4.5 5.5v14.5M8 7.5h7.5M8 11h5.5"/></symbol>
<symbol id="i-sparkle" viewBox="0 0 24 24"><path d="M12 3.5 13.8 9l5.7 1.8-5.7 1.8L12 20l-1.8-5.4L4.5 12.8 10.2 11Z"/></symbol>
<symbol id="i-clock" viewBox="0 0 24 24"><circle cx="12" cy="12" r="8.5"/><path d="M12 7.5V12l3 2"/></symbol>
<symbol id="i-download" viewBox="0 0 24 24"><path d="M12 4v11m0 0 4-4m-4 4-4-4M4.5 19h15"/></symbol>
<symbol id="i-folder" viewBox="0 0 24 24"><path d="M3.5 7.5A1.5 1.5 0 0 1 5 6h4l2 2.5h8a1.5 1.5 0 0 1 1.5 1.5v7.5A1.5 1.5 0 0 1 19 19H5a1.5 1.5 0 0 1-1.5-1.5Z"/></symbol>
<symbol id="i-bell" viewBox="0 0 24 24"><path d="M6.5 10a5.5 5.5 0 0 1 11 0c0 4 1.5 5.5 1.5 5.5H5S6.5 14 6.5 10Z"/><path d="M10 19a2 2 0 0 0 4 0"/></symbol>
<symbol id="i-lock" viewBox="0 0 24 24"><rect x="5" y="10.5" width="14" height="10" rx="2"/><path d="M8.5 10.5V7a3.5 3.5 0 0 1 7 0v3.5"/></symbol>
<symbol id="i-trash" viewBox="0 0 24 24"><path d="M4.5 7h15M9.5 7V5h5v2M6.5 7l1 13h9l1-13M10.5 11v5M13.5 11v5"/></symbol>
<symbol id="i-globe" viewBox="0 0 24 24"><circle cx="12" cy="12" r="8.5"/><path d="M3.5 12h17M12 3.5c2.6 2.6 2.6 14.4 0 17M12 3.5c-2.6 2.6-2.6 14.4 0 17"/></symbol>
<symbol id="i-mail" viewBox="0 0 24 24"><rect x="3" y="5.5" width="18" height="13" rx="2"/><path d="m3.5 7.5 8.5 6 8.5-6"/></symbol>
<symbol id="i-calendar" viewBox="0 0 24 24"><rect x="3.5" y="5" width="17" height="15" rx="2"/><path d="M3.5 10h17M8 3v4M16 3v4"/></symbol>
<symbol id="i-terminal" viewBox="0 0 24 24"><rect x="3" y="4.5" width="18" height="15" rx="2"/><path d="m7.5 10 3 2.5-3 2.5M13.5 15.5h3.5"/></symbol>
<symbol id="i-screen" viewBox="0 0 24 24"><path d="M4 8.5V6a2 2 0 0 1 2-2h2.5M15.5 4H18a2 2 0 0 1 2 2v2.5M20 15.5V18a2 2 0 0 1-2 2h-2.5M8.5 20H6a2 2 0 0 1-2-2v-2.5"/></symbol>
<symbol id="i-music" viewBox="0 0 24 24"><path d="M9 18V6l10-2v12"/><circle cx="6.5" cy="18" r="2.5"/><circle cx="16.5" cy="16" r="2.5"/></symbol>
<symbol id="i-cursor" viewBox="0 0 24 24"><path d="M6 3.5 18.5 11 13 12.5 10.5 19Z"/></symbol>
<symbol id="i-branch" viewBox="0 0 24 24"><circle cx="7" cy="6" r="2.5"/><circle cx="7" cy="18" r="2.5"/><circle cx="17" cy="8" r="2.5"/><path d="M7 8.5v7M17 10.5c0 4-10 1.5-10 5"/></symbol>
<symbol id="i-grid" viewBox="0 0 24 24"><rect x="4" y="4" width="7" height="7" rx="1.5"/><rect x="13" y="4" width="7" height="7" rx="1.5"/><rect x="4" y="13" width="7" height="7" rx="1.5"/><rect x="13" y="13" width="7" height="7" rx="1.5"/></symbol>
<symbol id="i-cloud" viewBox="0 0 24 24"><path d="M7.5 18.5a4 4 0 0 1-.4-8 5.5 5.5 0 0 1 10.6 1.5 3.3 3.3 0 0 1-.7 6.5Z"/></symbol>
<symbol id="i-location" viewBox="0 0 24 24"><path d="M19 10.5c0 5-7 10-7 10s-7-5-7-10a7 7 0 0 1 14 0Z"/><circle cx="12" cy="10.5" r="2.5"/></symbol>
<symbol id="i-doc" viewBox="0 0 24 24"><path d="M13 3.5H7A1.5 1.5 0 0 0 5.5 5v14A1.5 1.5 0 0 0 7 20.5h10a1.5 1.5 0 0 0 1.5-1.5V9Z"/><path d="M13 3.5V9h5.5M8.5 13.5h6M8.5 16.5h4"/></symbol>
<symbol id="i-play" viewBox="0 0 24 24"><path d="M8 5.5 18.5 12 8 18.5Z"/></symbol>
<symbol id="i-link" viewBox="0 0 24 24"><path d="M10 14a4 4 0 0 0 5.7 0l3-3a4 4 0 0 0-5.7-5.7L11.5 7"/><path d="M14 10a4 4 0 0 0-5.7 0l-3 3A4 4 0 0 0 11 18.7L12.5 17"/></symbol>
<symbol id="i-video" viewBox="0 0 24 24"><rect x="2.5" y="6" width="13" height="12" rx="2.5"/><path d="m15.5 13 6 3.5v-9L15.5 11Z"/></symbol>
<symbol id="i-camera" viewBox="0 0 24 24"><circle cx="7.5" cy="6" r="2.8"/><circle cx="14.5" cy="6.5" r="2.3"/><rect x="2.5" y="11" width="13" height="8" rx="2"/><path d="m15.5 14.5 6-3v8l-6-3Z"/></symbol>
<symbol id="i-copy" viewBox="0 0 24 24"><rect x="9" y="9" width="11" height="11" rx="2"/><path d="M15 9V5.5A1.5 1.5 0 0 0 13.5 4h-8A1.5 1.5 0 0 0 4 5.5v8A1.5 1.5 0 0 0 5.5 15H9"/></symbol>
<symbol id="i-frame" viewBox="0 0 24 24"><rect x="3" y="5" width="18" height="14" rx="2"/><path d="M3 9h3M18 9h3M3 15h3M18 15h3"/></symbol>
<symbol id="i-sliders" viewBox="0 0 24 24"><path d="M3.5 8.5h9M17.5 8.5h3M3.5 15.5h3M11.5 15.5h9"/><circle cx="15" cy="8.5" r="2.5"/><circle cx="9" cy="15.5" r="2.5"/></symbol>
<symbol id="i-pause" viewBox="0 0 24 24"><path d="M9.5 5v14M14.5 5v14"/></symbol>
<symbol id="i-warn" viewBox="0 0 24 24"><path d="M12 4.5 20.5 19.5h-17Z"/><path d="M12 10v4M12 16.75v.01"/></symbol>
<symbol id="i-ban" viewBox="0 0 24 24"><circle cx="12" cy="12" r="8.5"/><path d="m6.5 6.5 11 11"/></symbol>
<symbol id="i-pulse" viewBox="0 0 24 24"><path d="M3 12h4l2.5-6 4 12L16 12h5"/></symbol>
</svg>
